<svg width="281" height="274" viewBox="0 0 281 274" fill="none" xmlns="http://www.w3.org/2000/svg">
<path d="M140.5 0.916668C63.3802 0.916668 0.916646 63.3802 0.916646 140.5C0.900815 169.802 10.1126 198.366 27.2451 222.138C44.3776 245.91 68.5608 263.683 96.3637 272.937C103.343 274.151 105.953 269.964 105.953 266.292C105.953 262.984 105.772 251.999 105.772 240.302C70.7083 246.765 61.6354 231.76 58.8437 223.901C57.2664 219.881 50.4687 207.5 44.5364 204.178C39.651 201.568 32.6719 195.105 44.355 194.937C55.3541 194.756 63.1987 205.057 65.8229 209.245C78.3854 230.35 98.4575 224.418 106.47 220.76C107.698 211.688 111.355 205.588 115.375 202.098C84.3177 198.609 51.8646 186.562 51.8646 133.172C51.8646 117.985 57.2664 105.437 66.1719 95.6519C64.776 92.1623 59.8906 77.855 67.5677 58.6623C67.5677 58.6623 79.2508 55.0052 105.953 72.9835C117.316 69.8298 129.056 68.2425 140.849 68.2656C152.714 68.2656 164.578 69.829 175.745 72.9696C202.433 54.8238 214.13 58.6763 214.13 58.6763C221.807 77.869 216.922 92.1763 215.526 95.6658C224.417 105.437 229.833 117.818 229.833 133.172C229.833 186.744 197.213 198.609 166.155 202.098C171.208 206.453 175.577 214.828 175.577 227.921C175.577 246.583 175.396 261.589 175.396 266.306C175.396 269.964 178.02 274.319 184.999 272.923C212.707 263.568 236.783 245.76 253.84 222.005C270.897 198.25 280.075 169.744 280.083 140.5C280.083 63.3802 217.62 0.916668 140.5 0.916668Z" fill="#ADDBFF"/>
</svg>
